<svg width="39" height="37" viewBox="0 0 39 37" fill="none" xmlns="http://www.w3.org/2000/svg">
<path d="M17.2151 36.2692L0.688604 20.1912C0.438202 19.9476 0.260417 19.6838 0.155248 19.3995C0.0517574 19.1152 0 18.8107 0 18.486C0 18.1612 0.0517574 17.8567 0.155248 17.5724C0.260417 17.2881 0.438202 17.0243 0.688604 16.7807L17.2151 0.702708C17.6741 0.256106 18.2475 0.022245 18.9353 0.00112434C19.6247 -0.0183641 20.2199 0.215497 20.7207 0.702708C21.2215 1.14931 21.4827 1.70717 21.5045 2.37628C21.5245 3.047 21.2841 3.62598 20.7833 4.11319L8.51364 16.0499H36.496C37.2054 16.0499 37.8006 16.283 38.2813 16.749C38.7604 17.2168 39 17.7958 39 18.486C39 19.1761 38.7604 19.7544 38.2813 20.2204C37.8006 20.6882 37.2054 20.922 36.496 20.922H8.51364L20.7833 32.8587C21.2423 33.3052 21.4827 33.8738 21.5045 34.5639C21.5245 35.2541 21.2841 35.8227 20.7833 36.2692C20.3243 36.7564 19.7399 37 19.0305 37C18.3211 37 17.7159 36.7564 17.2151 36.2692Z" fill="black"/>
</svg>
